<svg width="161" height="84" viewBox="0 0 161 84" fill="none" xmlns="http://www.w3.org/2000/svg">
<path d="M0.568359 27.7584H4.69376V78.8617H27.2212V82.7851H0.568359V27.7584ZM38.0677 27.7584H62.7274V31.8545H42.1931V50.3119H56.3076L54.8938 54.6302H42.1931V78.8617H62.5884V82.7851H38.0677V27.7584ZM78.6032 68.794C78.7423 70.5706 79.368 72.2733 80.4805 73.9018C81.593 75.5304 83.1226 76.8382 85.0694 77.8746C86.9931 78.8863 89.2412 79.4045 91.7442 79.4045C95.522 79.4045 98.6972 78.4915 101.223 76.6902C103.773 74.8889 105.024 72.0018 105.024 68.0784C105.024 65.7836 104.422 63.8589 103.193 62.3043C101.965 60.7497 100.435 59.5159 98.6044 58.6029C96.7967 57.6899 94.2936 56.6289 91.1416 55.4198C87.7579 54.1613 85.0231 53.0016 82.9836 51.9158C80.944 50.8548 79.229 49.3989 77.8152 47.5729C76.4247 45.7222 75.7294 43.3781 75.7294 40.491C75.7294 38.1715 76.3319 36 77.5603 33.9273C78.7886 31.8545 80.6428 30.1766 83.1458 28.8935C85.6257 27.6103 88.685 26.9688 92.3236 26.9688C94.734 26.9688 96.7272 27.1415 98.3032 27.5116C99.8791 27.8817 101.478 28.4986 103.101 29.3376L101.849 33.4831C99.0448 31.9779 95.916 31.213 92.4859 31.213C88.685 31.213 85.672 32.0519 83.4007 33.7299C81.1295 35.4078 79.9938 37.7273 79.9938 40.7131C79.9938 42.6131 80.5732 44.1924 81.7089 45.4755C82.8213 46.7586 84.2119 47.795 85.8806 48.5846C87.5261 49.3742 89.8206 50.3119 92.764 51.4223C96.3563 52.7301 99.2766 53.9392 101.478 55.0743C103.703 56.2094 105.581 57.7886 107.133 59.8614C108.686 61.9342 109.451 64.5498 109.451 67.6836C109.451 72.52 108.014 76.3694 105.14 79.2811C102.266 82.1929 97.8164 83.6487 91.8138 83.6487C88.1751 83.6487 85.0694 82.9331 82.4737 81.4773C79.9011 80.0461 77.9311 78.1954 76.5637 75.9006C75.2195 73.6304 74.4778 71.2616 74.3851 68.794H78.6032ZM127.992 35.852V82.7851H123.844V27.7584H127.992L156.036 74.6915V27.7584H160.184V82.7851H156.036L127.992 35.852Z" fill="black"/>
<path d="M113.228 0C116.844 0 120.112 1.55457 122.452 4.07148C124.816 6.5884 126.277 10.043 126.277 13.8924C126.277 17.7171 124.816 21.1717 122.452 23.6886C120.088 26.2302 116.821 27.7848 113.228 27.7848C109.636 27.7848 106.368 26.2302 104.004 23.7133C101.663 21.1964 100.203 17.7171 100.203 13.8924C100.203 10.0677 101.663 6.5884 104.004 4.07148C106.391 1.55457 109.636 0 113.228 0ZM121.108 5.50267C119.115 3.35589 116.311 2.0234 113.228 2.0234C110.169 2.0234 107.365 3.35589 105.348 5.47799C103.355 7.64945 102.104 10.6105 102.104 13.8924C102.104 17.1742 103.355 20.1353 105.348 22.2821C107.365 24.4289 110.169 25.7614 113.228 25.7614C116.311 25.7614 119.115 24.4289 121.108 22.2821C123.125 20.1353 124.376 17.1742 124.376 13.8924C124.376 10.6105 123.125 7.64945 121.108 5.50267Z" fill="#D82B32"/>
</svg>
