<svg width="66" height="40" viewBox="0 0 66 40" fill="none" xmlns="http://www.w3.org/2000/svg">
<path d="M0 13.4746H1.68682V36.8403H10.898V38.6341H0V13.4746ZM15.333 13.4746H25.4161V15.3474H17.0199V23.7866H22.7911L22.213 25.761H17.0199V36.8403H25.3592V38.6341H15.333V13.4746ZM31.9075 32.2371C31.9644 33.0494 32.2202 33.8279 32.6751 34.5725C33.13 35.3171 33.7554 35.9151 34.5515 36.389C35.338 36.8515 36.2572 37.0885 37.2807 37.0885C38.8254 37.0885 40.1237 36.671 41.1566 35.8474C42.199 35.0238 42.7108 33.7038 42.7108 31.9099C42.7108 30.8606 42.4644 29.9806 41.9621 29.2698C41.4599 28.559 40.8344 27.9949 40.0858 27.5775C39.3466 27.16 38.3231 26.6749 37.0343 26.122C35.6507 25.5466 34.5325 25.0164 33.6986 24.52C32.8646 24.0348 32.1634 23.3692 31.5853 22.5343C31.0167 21.6881 30.7324 20.6163 30.7324 19.2962C30.7324 18.2357 30.9788 17.2429 31.4811 16.2951C31.9833 15.3474 32.7414 14.5802 33.7649 13.9935C34.7789 13.4069 36.0298 13.1135 37.5176 13.1135C38.5032 13.1135 39.3182 13.1925 39.9626 13.3617C40.607 13.531 41.2608 13.813 41.9242 14.1966L41.4125 16.0921C40.2658 15.4038 38.9865 15.0541 37.5839 15.0541C36.0298 15.0541 34.7978 15.4377 33.8691 16.2049C32.9404 16.9721 32.4761 18.0326 32.4761 19.3978C32.4761 20.2665 32.713 20.9886 33.1774 21.5753C33.6322 22.1619 34.2008 22.6358 34.8831 22.9968C35.556 23.3579 36.4941 23.7866 37.6977 24.2943C39.1665 24.8923 40.3606 25.4451 41.2608 25.9641C42.1706 26.4831 42.9382 27.2051 43.5731 28.1529C44.208 29.1006 44.5208 30.2965 44.5208 31.7294C44.5208 33.9407 43.9332 35.7007 42.7581 37.032C41.583 38.3634 39.7635 39.029 37.3091 39.029C35.8213 39.029 34.5515 38.7018 33.4901 38.0362C32.4382 37.3818 31.6327 36.5356 31.0736 35.4864C30.5239 34.4484 30.2207 33.3653 30.1828 32.2371H31.9075ZM52.102 17.1752V38.6341H50.4057V13.4746H52.102L63.5686 34.9335V13.4746H65.2649V38.6341H63.5686L52.102 17.1752Z" fill="white"/>
<path d="M46.066 0.782898C47.5444 0.782898 48.8806 1.49368 49.8377 2.64448C50.8043 3.79528 51.4013 5.3748 51.4013 7.13484C51.4013 8.8836 50.8043 10.4631 49.8377 11.6139C48.8711 12.776 47.5349 13.4868 46.066 13.4868C44.5972 13.4868 43.261 12.776 42.2944 11.6252C41.3373 10.4744 40.7402 8.8836 40.7402 7.13484C40.7402 5.38608 41.3373 3.79528 42.2944 2.64448C43.2705 1.49368 44.5972 0.782898 46.066 0.782898ZM49.2881 3.29885C48.4731 2.31729 47.3264 1.70805 46.066 1.70805C44.8151 1.70805 43.6685 2.31729 42.844 3.28757C42.029 4.28042 41.5173 5.63429 41.5173 7.13484C41.5173 8.63539 42.029 9.98927 42.844 10.9708C43.6685 11.9524 44.8151 12.5616 46.066 12.5616C47.3264 12.5616 48.4731 11.9524 49.2881 10.9708C50.1125 9.98927 50.6243 8.63539 50.6243 7.13484C50.6243 5.63429 50.1125 4.28042 49.2881 3.29885Z" fill="#D82B32"/>
</svg>
