<svg width="296" height="174" viewBox="0 0 296 174" fill="none" xmlns="http://www.w3.org/2000/svg">
<path d="M0 57.5612H7.65036V163.533H49.4265V171.669H0V57.5612ZM69.5409 57.5612H115.271V66.0554H77.1912V104.33H103.366L100.744 113.285H77.1912V163.533H115.013V171.669H69.5409V57.5612ZM144.712 142.656C144.97 146.34 146.13 149.871 148.193 153.248C150.256 156.625 153.093 159.337 156.703 161.486C160.271 163.584 164.44 164.659 169.081 164.659C176.087 164.659 181.975 162.766 186.66 159.03C191.388 155.295 193.709 149.308 193.709 141.172C193.709 136.413 192.591 132.422 190.313 129.198C188.035 125.975 185.199 123.416 181.803 121.523C178.451 119.63 173.809 117.429 167.964 114.922C161.689 112.313 156.617 109.908 152.835 107.656C149.053 105.456 145.873 102.437 143.251 98.6503C140.672 94.8126 139.383 89.9515 139.383 83.9647C139.383 79.1547 140.5 74.6518 142.778 70.3536C145.056 66.0554 148.494 62.5759 153.136 59.915C157.735 57.2542 163.408 55.9238 170.156 55.9238C174.626 55.9238 178.322 56.282 181.245 57.0496C184.167 57.8171 187.133 59.0963 190.141 60.8361L187.821 69.4326C182.62 66.3112 176.818 64.725 170.457 64.725C163.408 64.725 157.821 66.4647 153.609 69.9442C149.397 73.4238 147.291 78.2337 147.291 84.4252C147.291 88.3652 148.365 91.6401 150.471 94.3009C152.534 96.9617 155.113 99.1108 158.208 100.748C161.259 102.386 165.514 104.33 170.973 106.633C177.634 109.345 183.05 111.852 187.133 114.206C191.259 116.56 194.74 119.834 197.62 124.133C200.499 128.431 201.918 133.855 201.918 140.353C201.918 150.383 199.253 158.365 193.924 164.403C188.594 170.441 180.342 173.46 169.21 173.46C162.463 173.46 156.703 171.976 151.89 168.957C147.119 165.989 143.466 162.152 140.93 157.393C138.437 152.685 137.062 147.773 136.89 142.656H144.712ZM236.301 74.3448V171.669H228.608V57.5612H236.301L288.307 154.885V57.5612H296V171.669H288.307L236.301 74.3448Z" fill="white"/>
<path d="M208.602 0C216.149 0 222.97 3.29881 227.856 8.63974C232.791 13.9807 235.838 21.3114 235.838 29.4799C235.838 37.596 232.791 44.9267 227.856 50.2676C222.922 55.6609 216.101 58.9597 208.602 58.9597C201.104 58.9597 194.282 55.6609 189.348 50.32C184.462 44.979 181.414 37.596 181.414 29.4799C181.414 21.3637 184.462 13.9807 189.348 8.63974C194.331 3.29881 201.104 0 208.602 0ZM225.05 11.6767C220.89 7.12124 215.036 4.29369 208.602 4.29369C202.216 4.29369 196.363 7.12124 192.154 11.6244C187.993 16.2322 185.381 22.5157 185.381 29.4799C185.381 36.444 187.993 42.7275 192.154 47.283C196.363 51.8385 202.216 54.666 208.602 54.666C215.036 54.666 220.89 51.8385 225.05 47.283C229.259 42.7275 231.871 36.444 231.871 29.4799C231.871 22.5157 229.259 16.2322 225.05 11.6767Z" fill="black"/>
</svg>
