<svg width="161" height="84" viewBox="0 0 161 84" fill="none" xmlns="http://www.w3.org/2000/svg">
<path d="M0.567383 27.7603H4.69278V78.8636H27.2202V82.787H0.567383V27.7603ZM38.0668 27.7603H62.7264V31.8565H42.1922V50.3139H56.3066L54.8928 54.6321H42.1922V78.8636H62.5874V82.787H38.0668V27.7603ZM78.6023 68.7959C78.7413 70.5726 79.3671 72.2752 80.4795 73.9038C81.592 75.5324 83.1216 76.8402 85.0685 77.8766C86.9921 78.8883 89.2402 79.4065 91.7433 79.4065C95.521 79.4065 98.6962 78.4935 101.222 76.6921C103.772 74.8908 105.023 72.0038 105.023 68.0803C105.023 65.7855 104.421 63.8608 103.192 62.3062C101.964 60.7517 100.434 59.5179 98.6035 58.6049C96.7957 57.6919 94.2927 56.6308 91.1407 55.4217C87.7569 54.1633 85.0221 53.0035 82.9826 51.9178C80.9431 50.8567 79.228 49.4009 77.8143 47.5749C76.4237 45.7242 75.7284 43.38 75.7284 40.493C75.7284 38.1735 76.331 36.002 77.5593 33.9292C78.7877 31.8565 80.6418 30.1785 83.1448 28.8954C85.6247 27.6123 88.684 26.9707 92.3227 26.9707C94.733 26.9707 96.7262 27.1434 98.3022 27.5136C99.8782 27.8837 101.477 28.5006 103.1 29.3396L101.848 33.4851C99.0438 31.9799 95.915 31.2149 92.4849 31.2149C88.684 31.2149 85.671 32.0539 83.3998 33.7318C81.1285 35.4098 79.9928 37.7293 79.9928 40.715C79.9928 42.6151 80.5722 44.1943 81.7079 45.4774C82.8204 46.7606 84.2109 47.797 85.8796 48.5866C87.5252 49.3762 89.8196 50.3139 92.763 51.4243C96.3554 52.7321 99.2756 53.9412 101.477 55.0763C103.702 56.2114 105.58 57.7906 107.132 59.8634C108.685 61.9361 109.45 64.5517 109.45 67.6855C109.45 72.522 108.013 76.3714 105.139 79.2831C102.265 82.1948 97.8155 83.6507 91.8128 83.6507C88.1741 83.6507 85.0685 82.9351 82.4727 81.4792C79.9001 80.048 77.9301 78.1974 76.5627 75.9025C75.2185 73.6324 74.4769 71.2635 74.3842 68.7959H78.6023ZM127.991 35.8539V82.787H123.843V27.7603H127.991L156.035 74.6934V27.7603H160.183V82.787H156.035L127.991 35.8539Z" fill="black"/>
<path d="M113.228 0C116.844 0 120.112 1.55457 122.452 4.07148C124.816 6.5884 126.277 10.043 126.277 13.8924C126.277 17.7171 124.816 21.1717 122.452 23.6886C120.088 26.2302 116.821 27.7848 113.228 27.7848C109.636 27.7848 106.368 26.2302 104.004 23.7133C101.663 21.1964 100.203 17.7171 100.203 13.8924C100.203 10.0677 101.663 6.5884 104.004 4.07148C106.391 1.55457 109.636 0 113.228 0ZM121.108 5.50267C119.115 3.35589 116.311 2.0234 113.228 2.0234C110.169 2.0234 107.365 3.35589 105.348 5.47799C103.355 7.64945 102.104 10.6105 102.104 13.8924C102.104 17.1742 103.355 20.1353 105.348 22.2821C107.365 24.4289 110.169 25.7614 113.228 25.7614C116.311 25.7614 119.115 24.4289 121.108 22.2821C123.125 20.1353 124.376 17.1742 124.376 13.8924C124.376 10.6105 123.125 7.64945 121.108 5.50267Z" fill="#D82B32"/>
</svg>
